<svg xmlns="http://www.w3.org/2000/svg" version="1.1" xmlns:xlink="http://www.w3.org/1999/xlink" xmlns:svgjs="http://svgjs.com/svgjs" width="512" height="512" x="0" y="0" viewBox="0 0 512 512" style="enable-background:new 0 0 512 512" xml:space="preserve" class=""><g><g xmlns="http://www.w3.org/2000/svg"><path d="m79.002 286.619h45.633v33.683h-45.633z" fill="#ffffff" data-original="#000000" class=""></path><path d="m481.659 197.397h-451.318c-16.544 0-29.955 13.411-29.955 29.955v254.694c0 16.543 13.411 29.954 29.955 29.954h451.318c16.544 0 29.955-13.411 29.955-29.955v-254.693c0-16.544-13.411-29.955-29.955-29.955zm-360.463 249.604h-74.142v-29.955h74.142zm33.394-121.706c0 13.764-11.198 24.962-24.962 24.962h-55.619c-13.764 0-24.962-11.198-24.962-24.962v-43.668c0-13.764 11.198-24.962 24.962-24.962h55.618c13.764 0 24.962 11.198 24.962 24.962v43.668zm81.189 121.706h-74.142v-29.955h74.142zm114.584 0h-74.142v-29.955h74.142zm114.583 0h-74.142v-29.955h74.142z" fill="#ffffff" data-original="#000000" class=""></path><path d="m402.509 72.766-63.992-63.992c-11.698-11.698-30.664-11.698-42.363 0l-158.668 158.668h175.756z" fill="#ffffff" data-original="#000000" class=""></path><path d="m400.669 167.442 46.839-49.677-23.808-23.808-69.288 73.485z" fill="#ffffff" data-original="#000000" class=""></path><path d="m481.659 167.442c6.434 0 12.63 1.032 18.444 2.918l-31.404-31.404-26.859 28.487h39.819z" fill="#ffffff" data-original="#000000" class=""></path></g></g></svg>