<svg viewBox="0 0 35 47" fill="none" xmlns="http://www.w3.org/2000/svg">
<path d="M2.97363 46.4292H0.827148L0.84082 44.9526H2.97363C3.55241 44.9526 4.03776 44.825 4.42969 44.5698C4.82161 44.3101 5.11784 43.9386 5.31836 43.4556C5.51888 42.9679 5.61914 42.3846 5.61914 41.7056V41.1929C5.61914 40.6688 5.56217 40.2062 5.44824 39.8052C5.33431 39.4041 5.16569 39.0669 4.94238 38.7935C4.72363 38.52 4.45247 38.3127 4.12891 38.1714C3.80534 38.0301 3.43392 37.9595 3.01465 37.9595H0.786133V36.4761H3.01465C3.68001 36.4761 4.28613 36.5877 4.83301 36.811C5.38444 37.0343 5.86068 37.3556 6.26172 37.7749C6.66732 38.1896 6.97721 38.6864 7.19141 39.2651C7.41016 39.8439 7.51953 40.491 7.51953 41.2065V41.7056C7.51953 42.4165 7.41016 43.0636 7.19141 43.647C6.97721 44.2257 6.66732 44.7225 6.26172 45.1372C5.86068 45.5519 5.38216 45.8709 4.82617 46.0942C4.27018 46.3175 3.65267 46.4292 2.97363 46.4292ZM1.87988 36.4761V46.4292H0V36.4761H1.87988Z" fill="#878D94"/>
<path d="M16.8567 41.1997V41.7124C16.8567 42.4644 16.7565 43.1411 16.5559 43.7427C16.3554 44.3397 16.0706 44.8478 15.7014 45.2671C15.3323 45.6864 14.8925 46.0076 14.3821 46.231C13.8717 46.4543 13.3043 46.5659 12.68 46.5659C12.0647 46.5659 11.4996 46.4543 10.9846 46.231C10.4742 46.0076 10.0322 45.6864 9.65847 45.2671C9.28477 44.8478 8.99538 44.3397 8.79031 43.7427C8.58523 43.1411 8.48269 42.4644 8.48269 41.7124V41.1997C8.48269 40.4432 8.58523 39.7664 8.79031 39.1694C8.99538 38.5724 9.28249 38.0643 9.65163 37.645C10.0208 37.2212 10.4606 36.8976 10.971 36.6743C11.4859 36.451 12.051 36.3394 12.6663 36.3394C13.2906 36.3394 13.858 36.451 14.3684 36.6743C14.8788 36.8976 15.3186 37.2212 15.6878 37.645C16.0615 38.0643 16.3486 38.5724 16.5491 39.1694C16.7542 39.7664 16.8567 40.4432 16.8567 41.1997ZM14.9563 41.7124V41.186C14.9563 40.6437 14.9062 40.1675 14.8059 39.7573C14.7057 39.3426 14.5576 38.994 14.3616 38.7114C14.1656 38.4289 13.9241 38.217 13.637 38.0757C13.3499 37.9299 13.0263 37.8569 12.6663 37.8569C12.3017 37.8569 11.9781 37.9299 11.6956 38.0757C11.4176 38.217 11.1806 38.4289 10.9846 38.7114C10.7887 38.994 10.6383 39.3426 10.5335 39.7573C10.4332 40.1675 10.3831 40.6437 10.3831 41.186V41.7124C10.3831 42.2502 10.4332 42.7264 10.5335 43.1411C10.6383 43.5558 10.7887 43.9067 10.9846 44.1938C11.1852 44.4764 11.4267 44.6906 11.7093 44.8364C11.9918 44.9823 12.3154 45.0552 12.68 45.0552C13.0445 45.0552 13.3681 44.9823 13.6507 44.8364C13.9332 44.6906 14.1702 44.4764 14.3616 44.1938C14.5576 43.9067 14.7057 43.5558 14.8059 43.1411C14.9062 42.7264 14.9563 42.2502 14.9563 41.7124Z" fill="#878D94"/>
<path d="M26.1255 36.4761V46.4292H24.2388L20.0074 39.5249V46.4292H18.1275V36.4761H20.0074L24.2525 43.3872V36.4761H26.1255Z" fill="#878D94"/>
<path d="M34.3143 44.9526V46.4292H29.0233V44.9526H34.3143ZM29.5975 36.4761V46.4292H27.7176V36.4761H29.5975ZM33.6238 40.5845V42.0269H29.0233V40.5845H33.6238ZM34.2938 36.4761V37.9595H29.0233V36.4761H34.2938Z" fill="#878D94"/>
<path d="M22.5588 9.50027C22.8351 9.19167 22.8089 8.71752 22.5003 8.44123C22.1917 8.16493 21.7175 8.19113 21.4412 8.49973L22.5588 9.50027ZM18.6308 12.7632L18.0721 12.2629L18.6308 12.7632ZM12.8692 12.7632L13.4279 12.2629L12.8692 12.7632ZM12.5588 11.2921C12.2825 10.9835 11.8083 10.9573 11.4997 11.2336C11.1911 11.5099 11.1649 11.984 11.4412 12.2926L12.5588 11.2921ZM26.25 12C26.25 17.1086 22.1086 21.25 17 21.25V22.75C22.9371 22.75 27.75 17.9371 27.75 12H26.25ZM17 21.25C11.8914 21.25 7.75 17.1086 7.75 12H6.25C6.25 17.9371 11.0629 22.75 17 22.75V21.25ZM7.75 12C7.75 6.89137 11.8914 2.75 17 2.75V1.25C11.0629 1.25 6.25 6.06294 6.25 12H7.75ZM17 2.75C22.1086 2.75 26.25 6.89137 26.25 12H27.75C27.75 6.06294 22.9371 1.25 17 1.25V2.75ZM21.4412 8.49973L18.0721 12.2629L19.1896 13.2635L22.5588 9.50027L21.4412 8.49973ZM13.4279 12.2629L12.5588 11.2921L11.4412 12.2926L12.3104 13.2634L13.4279 12.2629ZM18.0721 12.2629C17.3894 13.0254 16.9296 13.5363 16.5365 13.8667C16.1621 14.1814 15.9421 14.25 15.75 14.25V15.75C16.4361 15.75 16.989 15.4458 17.5016 15.0149C17.9957 14.5997 18.5372 13.9921 19.1896 13.2635L18.0721 12.2629ZM12.3104 13.2634C12.9628 13.9921 13.5043 14.5997 13.9984 15.0149C14.511 15.4458 15.0639 15.75 15.75 15.75V14.25C15.5579 14.25 15.3379 14.1814 14.9635 13.8667C14.5704 13.5363 14.1106 13.0254 13.4279 12.2629L12.3104 13.2634Z" fill="#63C567"/>
</svg>
