<svg viewBox="0 0 414 398" fill="none" xmlns="http://www.w3.org/2000/svg">
<g filter="url(#filter0_dddddd_203_37)">
<rect x="32" width="350" height="218" rx="24" fill="url(#paint0_linear_203_37)"/>
</g>
<path d="M68.72 145.592C69.536 145.592 70.2 145.856 70.712 146.384C71.24 146.912 71.504 147.592 71.504 148.424C71.504 149.272 71.24 149.968 70.712 150.512C70.2 151.04 69.536 151.304 68.72 151.304C67.92 151.304 67.256 151.032 66.728 150.488C66.216 149.944 65.96 149.256 65.96 148.424C65.96 147.592 66.216 146.912 66.728 146.384C67.256 145.856 67.92 145.592 68.72 145.592ZM82.6766 145.592C83.4926 145.592 84.1566 145.856 84.6686 146.384C85.1966 146.912 85.4606 147.592 85.4606 148.424C85.4606 149.272 85.1966 149.968 84.6686 150.512C84.1566 151.04 83.4926 151.304 82.6766 151.304C81.8766 151.304 81.2126 151.032 80.6846 150.488C80.1726 149.944 79.9166 149.256 79.9166 148.424C79.9166 147.592 80.1726 146.912 80.6846 146.384C81.2126 145.856 81.8766 145.592 82.6766 145.592ZM96.6331 145.592C97.4491 145.592 98.1131 145.856 98.6251 146.384C99.1531 146.912 99.4171 147.592 99.4171 148.424C99.4171 149.272 99.1531 149.968 98.6251 150.512C98.1131 151.04 97.4491 151.304 96.6331 151.304C95.8331 151.304 95.1691 151.032 94.6411 150.488C94.1291 149.944 93.8731 149.256 93.8731 148.424C93.8731 147.592 94.1291 146.912 94.6411 146.384C95.1691 145.856 95.8331 145.592 96.6331 145.592ZM110.59 145.592C111.406 145.592 112.07 145.856 112.582 146.384C113.11 146.912 113.374 147.592 113.374 148.424C113.374 149.272 113.11 149.968 112.582 150.512C112.07 151.04 111.406 151.304 110.59 151.304C109.79 151.304 109.126 151.032 108.598 150.488C108.086 149.944 107.83 149.256 107.83 148.424C107.83 147.592 108.086 146.912 108.598 146.384C109.126 145.856 109.79 145.592 110.59 145.592ZM136.651 145.592C137.467 145.592 138.131 145.856 138.643 146.384C139.171 146.912 139.435 147.592 139.435 148.424C139.435 149.272 139.171 149.968 138.643 150.512C138.131 151.04 137.467 151.304 136.651 151.304C135.851 151.304 135.187 151.032 134.659 150.488C134.147 149.944 133.891 149.256 133.891 148.424C133.891 147.592 134.147 146.912 134.659 146.384C135.187 145.856 135.851 145.592 136.651 145.592ZM150.608 145.592C151.424 145.592 152.088 145.856 152.6 146.384C153.128 146.912 153.392 147.592 153.392 148.424C153.392 149.272 153.128 149.968 152.6 150.512C152.088 151.04 151.424 151.304 150.608 151.304C149.808 151.304 149.144 151.032 148.616 150.488C148.104 149.944 147.848 149.256 147.848 148.424C147.848 147.592 148.104 146.912 148.616 146.384C149.144 145.856 149.808 145.592 150.608 145.592ZM164.564 145.592C165.38 145.592 166.044 145.856 166.556 146.384C167.084 146.912 167.348 147.592 167.348 148.424C167.348 149.272 167.084 149.968 166.556 150.512C166.044 151.04 165.38 151.304 164.564 151.304C163.764 151.304 163.1 151.032 162.572 150.488C162.06 149.944 161.804 149.256 161.804 148.424C161.804 147.592 162.06 146.912 162.572 146.384C163.1 145.856 163.764 145.592 164.564 145.592ZM178.521 145.592C179.337 145.592 180.001 145.856 180.513 146.384C181.041 146.912 181.305 147.592 181.305 148.424C181.305 149.272 181.041 149.968 180.513 150.512C180.001 151.04 179.337 151.304 178.521 151.304C177.721 151.304 177.057 151.032 176.529 150.488C176.017 149.944 175.761 149.256 175.761 148.424C175.761 147.592 176.017 146.912 176.529 146.384C177.057 145.856 177.721 145.592 178.521 145.592ZM204.583 145.592C205.399 145.592 206.063 145.856 206.575 146.384C207.103 146.912 207.367 147.592 207.367 148.424C207.367 149.272 207.103 149.968 206.575 150.512C206.063 151.04 205.399 151.304 204.583 151.304C203.783 151.304 203.119 151.032 202.591 150.488C202.079 149.944 201.823 149.256 201.823 148.424C201.823 147.592 202.079 146.912 202.591 146.384C203.119 145.856 203.783 145.592 204.583 145.592ZM218.539 145.592C219.355 145.592 220.019 145.856 220.531 146.384C221.059 146.912 221.323 147.592 221.323 148.424C221.323 149.272 221.059 149.968 220.531 150.512C220.019 151.04 219.355 151.304 218.539 151.304C217.739 151.304 217.075 151.032 216.547 150.488C216.035 149.944 215.779 149.256 215.779 148.424C215.779 147.592 216.035 146.912 216.547 146.384C217.075 145.856 217.739 145.592 218.539 145.592ZM232.496 145.592C233.312 145.592 233.976 145.856 234.488 146.384C235.016 146.912 235.28 147.592 235.28 148.424C235.28 149.272 235.016 149.968 234.488 150.512C233.976 151.04 233.312 151.304 232.496 151.304C231.696 151.304 231.032 151.032 230.504 150.488C229.992 149.944 229.736 149.256 229.736 148.424C229.736 147.592 229.992 146.912 230.504 146.384C231.032 145.856 231.696 145.592 232.496 145.592ZM246.452 145.592C247.268 145.592 247.932 145.856 248.444 146.384C248.972 146.912 249.236 147.592 249.236 148.424C249.236 149.272 248.972 149.968 248.444 150.512C247.932 151.04 247.268 151.304 246.452 151.304C245.652 151.304 244.988 151.032 244.46 150.488C243.948 149.944 243.692 149.256 243.692 148.424C243.692 147.592 243.948 146.912 244.46 146.384C244.988 145.856 245.652 145.592 246.452 145.592ZM272.514 145.592C273.33 145.592 273.994 145.856 274.506 146.384C275.034 146.912 275.298 147.592 275.298 148.424C275.298 149.272 275.034 149.968 274.506 150.512C273.994 151.04 273.33 151.304 272.514 151.304C271.714 151.304 271.05 151.032 270.522 150.488C270.01 149.944 269.754 149.256 269.754 148.424C269.754 147.592 270.01 146.912 270.522 146.384C271.05 145.856 271.714 145.592 272.514 145.592ZM286.47 145.592C287.286 145.592 287.95 145.856 288.462 146.384C288.99 146.912 289.254 147.592 289.254 148.424C289.254 149.272 288.99 149.968 288.462 150.512C287.95 151.04 287.286 151.304 286.47 151.304C285.67 151.304 285.006 151.032 284.478 150.488C283.966 149.944 283.71 149.256 283.71 148.424C283.71 147.592 283.966 146.912 284.478 146.384C285.006 145.856 285.67 145.592 286.47 145.592ZM300.427 145.592C301.243 145.592 301.907 145.856 302.419 146.384C302.947 146.912 303.211 147.592 303.211 148.424C303.211 149.272 302.947 149.968 302.419 150.512C301.907 151.04 301.243 151.304 300.427 151.304C299.627 151.304 298.963 151.032 298.435 150.488C297.923 149.944 297.667 149.256 297.667 148.424C297.667 147.592 297.923 146.912 298.435 146.384C298.963 145.856 299.627 145.592 300.427 145.592ZM314.383 145.592C315.199 145.592 315.863 145.856 316.375 146.384C316.903 146.912 317.167 147.592 317.167 148.424C317.167 149.272 316.903 149.968 316.375 150.512C315.863 151.04 315.199 151.304 314.383 151.304C313.583 151.304 312.919 151.032 312.391 150.488C311.879 149.944 311.623 149.256 311.623 148.424C311.623 147.592 311.879 146.912 312.391 146.384C312.919 145.856 313.583 145.592 314.383 145.592Z" fill="black"/>
<circle cx="337.688" cy="44.3125" r="20.3125" fill="#F79F1A"/>
<circle cx="313.312" cy="44.3125" r="20.3125" fill="#EA001B"/>
<path fill-rule="evenodd" clip-rule="evenodd" d="M325.5 60.564C330.434 56.8582 333.625 50.958 333.625 44.3125C333.625 37.667 330.434 31.7669 325.5 28.061C320.566 31.7669 317.375 37.667 317.375 44.3125C317.375 50.958 320.566 56.8582 325.5 60.564Z" fill="#FF6600"/>
<path d="M70.496 180.608C70.496 181.707 70.2027 182.56 69.616 183.168C69.0293 183.765 68.2133 184.064 67.168 184.064C66.5387 184.064 65.952 183.925 65.408 183.648C64.864 183.371 64.3893 182.976 63.984 182.464L64.736 181.28C65.088 181.696 65.472 182.016 65.888 182.24C66.3147 182.453 66.736 182.56 67.152 182.56C67.728 182.56 68.1707 182.389 68.48 182.048C68.7893 181.696 68.944 181.2 68.944 180.56V174.208H64.992V172.8H70.496V180.608ZM76.8198 175.488C77.6624 175.488 78.4091 175.669 79.0598 176.032C79.7211 176.395 80.2331 176.901 80.5958 177.552C80.9691 178.192 81.1558 178.928 81.1558 179.76C81.1558 180.592 80.9691 181.333 80.5958 181.984C80.2331 182.635 79.7211 183.141 79.0598 183.504C78.4091 183.867 77.6624 184.048 76.8198 184.048C75.9664 184.048 75.2091 183.867 74.5478 183.504C73.8971 183.141 73.3851 182.64 73.0118 182C72.6491 181.349 72.4678 180.603 72.4678 179.76C72.4678 178.928 72.6491 178.192 73.0118 177.552C73.3851 176.901 73.8971 176.395 74.5478 176.032C75.2091 175.669 75.9664 175.488 76.8198 175.488ZM76.8198 176.784C76.2651 176.784 75.7691 176.912 75.3318 177.168C74.9051 177.424 74.5691 177.781 74.3238 178.24C74.0891 178.688 73.9718 179.2 73.9718 179.776C73.9718 180.363 74.0891 180.885 74.3238 181.344C74.5691 181.803 74.9051 182.16 75.3318 182.416C75.7691 182.661 76.2651 182.784 76.8198 182.784C77.3638 182.784 77.8491 182.661 78.2758 182.416C78.7131 182.16 79.0491 181.803 79.2838 181.344C79.5291 180.885 79.6518 180.363 79.6518 179.776C79.6518 179.2 79.5291 178.688 79.2838 178.24C79.0491 177.781 78.7131 177.424 78.2758 177.168C77.8491 176.912 77.3638 176.784 76.8198 176.784ZM88.0373 175.488C89.0293 175.488 89.8079 175.781 90.3733 176.368C90.9386 176.944 91.2213 177.744 91.2213 178.768V184H89.7333V179.168C89.7333 178.453 89.5306 177.899 89.1253 177.504C88.7306 177.099 88.1813 176.896 87.4773 176.896C86.6559 176.907 86.0053 177.184 85.5253 177.728C85.0453 178.272 84.8053 178.976 84.8053 179.84V184H83.3173V172.128H84.8053V177.36C85.3706 176.133 86.4479 175.509 88.0373 175.488ZM98.5819 175.488C99.5739 175.488 100.353 175.781 100.918 176.368C101.483 176.944 101.766 177.744 101.766 178.768V184H100.278V179.168C100.278 178.453 100.075 177.899 99.6699 177.504C99.2752 177.099 98.7259 176.896 98.0219 176.896C97.2645 176.907 96.6459 177.152 96.1659 177.632C95.6965 178.101 95.4299 178.715 95.3659 179.472V184H93.8779V175.536H95.3659V177.328C95.9312 176.123 97.0032 175.509 98.5819 175.488ZM113.316 172.8C114.404 172.8 115.386 173.045 116.26 173.536C117.146 174.016 117.839 174.683 118.34 175.536C118.842 176.389 119.092 177.344 119.092 178.4C119.092 179.456 118.836 180.411 118.324 181.264C117.823 182.117 117.13 182.789 116.244 183.28C115.359 183.76 114.367 184 113.268 184H108.756V172.8H113.316ZM113.348 182.608C114.127 182.608 114.831 182.427 115.46 182.064C116.1 181.701 116.602 181.2 116.964 180.56C117.338 179.92 117.524 179.205 117.524 178.416C117.524 177.616 117.338 176.896 116.964 176.256C116.591 175.616 116.079 175.115 115.428 174.752C114.788 174.379 114.074 174.192 113.284 174.192H110.292V182.608H113.348ZM124.664 175.488C125.506 175.488 126.253 175.669 126.904 176.032C127.565 176.395 128.077 176.901 128.44 177.552C128.813 178.192 129 178.928 129 179.76C129 180.592 128.813 181.333 128.44 181.984C128.077 182.635 127.565 183.141 126.904 183.504C126.253 183.867 125.506 184.048 124.664 184.048C123.81 184.048 123.053 183.867 122.392 183.504C121.741 183.141 121.229 182.64 120.856 182C120.493 181.349 120.312 180.603 120.312 179.76C120.312 178.928 120.493 178.192 120.856 177.552C121.229 176.901 121.741 176.395 122.392 176.032C123.053 175.669 123.81 175.488 124.664 175.488ZM124.664 176.784C124.109 176.784 123.613 176.912 123.176 177.168C122.749 177.424 122.413 177.781 122.168 178.24C121.933 178.688 121.816 179.2 121.816 179.776C121.816 180.363 121.933 180.885 122.168 181.344C122.413 181.803 122.749 182.16 123.176 182.416C123.613 182.661 124.109 182.784 124.664 182.784C125.208 182.784 125.693 182.661 126.12 182.416C126.557 182.16 126.893 181.803 127.128 181.344C127.373 180.885 127.496 180.363 127.496 179.776C127.496 179.2 127.373 178.688 127.128 178.24C126.893 177.781 126.557 177.424 126.12 177.168C125.693 176.912 125.208 176.784 124.664 176.784ZM134.473 175.488C135.785 175.488 136.777 175.877 137.449 176.656C138.121 177.424 138.457 178.496 138.457 179.872C138.457 180.085 138.452 180.245 138.441 180.352H131.753C131.87 181.109 132.185 181.712 132.697 182.16C133.22 182.608 133.86 182.832 134.617 182.832C135.118 182.832 135.582 182.741 136.009 182.56C136.446 182.379 136.825 182.123 137.145 181.792L137.961 182.64C137.545 183.088 137.044 183.435 136.457 183.68C135.87 183.925 135.22 184.048 134.505 184.048C133.673 184.048 132.932 183.872 132.281 183.52C131.641 183.157 131.14 182.651 130.777 182C130.425 181.349 130.249 180.608 130.249 179.776C130.249 178.944 130.425 178.208 130.777 177.568C131.14 176.917 131.641 176.411 132.281 176.048C132.921 175.675 133.652 175.488 134.473 175.488ZM137.113 179.2C137.07 178.432 136.814 177.829 136.345 177.392C135.876 176.944 135.257 176.72 134.489 176.72C133.742 176.72 133.118 176.944 132.617 177.392C132.126 177.84 131.833 178.443 131.737 179.2H137.113Z" fill="black"/>
<path d="M283.113 173.9H284.595L287.923 180.296L291.225 173.9H292.72V183H291.55L291.537 175.733L288.3 182.038H287.533L284.27 175.733V183H283.113V173.9ZM295.326 173.9H296.808L300.136 180.296L303.438 173.9H304.933V183H303.763L303.75 175.733L300.513 182.038H299.746L296.483 175.733V183H295.326V173.9ZM313.529 172.353H314.582L310.487 184.56H309.447L313.529 172.353ZM325.397 173.9L321.991 179.88V183H320.743V179.932L317.285 173.9H318.559L321.367 178.541L324.123 173.9H325.397ZM333.586 173.9L330.18 179.88V183H328.932V179.932L325.474 173.9H326.748L329.556 178.541L332.312 173.9H333.586ZM341.774 173.9L338.368 179.88V183H337.12V179.932L333.662 173.9H334.936L337.744 178.541L340.5 173.9H341.774ZM349.963 173.9L346.557 179.88V183H345.309V179.932L341.851 173.9H343.125L345.933 178.541L348.689 173.9H349.963Z" fill="black"/>
<defs>
<filter id="filter0_dddddd_203_37" x="-48" y="0" width="510" height="398" filterUnits="userSpaceOnUse" color-interpolation-filters="sRGB">
<feFlood flood-opacity="0" result="BackgroundImageFix"/>
<feColorMatrix in="SourceAlpha" type="matrix" values="0 0 0 0 0 0 0 0 0 0 0 0 0 0 0 0 0 0 127 0" result="hardAlpha"/>
<feOffset dy="2.76726"/>
<feGaussianBlur stdDeviation="1.1069"/>
<feColorMatrix type="matrix" values="0 0 0 0 0 0 0 0 0 0 0 0 0 0 0 0 0 0 0.0196802 0"/>
<feBlend mode="normal" in2="BackgroundImageFix" result="effect1_dropShadow_203_37"/>
<feColorMatrix in="SourceAlpha" type="matrix" values="0 0 0 0 0 0 0 0 0 0 0 0 0 0 0 0 0 0 127 0" result="hardAlpha"/>
<feOffset dy="6.6501"/>
<feGaussianBlur stdDeviation="2.66004"/>
<feColorMatrix type="matrix" values="0 0 0 0 0 0 0 0 0 0 0 0 0 0 0 0 0 0 0.0282725 0"/>
<feBlend mode="normal" in2="effect1_dropShadow_203_37" result="effect2_dropShadow_203_37"/>
<feColorMatrix in="SourceAlpha" type="matrix" values="0 0 0 0 0 0 0 0 0 0 0 0 0 0 0 0 0 0 127 0" result="hardAlpha"/>
<feOffset dy="12.5216"/>
<feGaussianBlur stdDeviation="5.00862"/>
<feColorMatrix type="matrix" values="0 0 0 0 0 0 0 0 0 0 0 0 0 0 0 0 0 0 0.035 0"/>
<feBlend mode="normal" in2="effect2_dropShadow_203_37" result="effect3_dropShadow_203_37"/>
<feColorMatrix in="SourceAlpha" type="matrix" values="0 0 0 0 0 0 0 0 0 0 0 0 0 0 0 0 0 0 127 0" result="hardAlpha"/>
<feOffset dy="22.3363"/>
<feGaussianBlur stdDeviation="8.93452"/>
<feColorMatrix type="matrix" values="0 0 0 0 0 0 0 0 0 0 0 0 0 0 0 0 0 0 0.0417275 0"/>
<feBlend mode="normal" in2="effect3_dropShadow_203_37" result="effect4_dropShadow_203_37"/>
<feColorMatrix in="SourceAlpha" type="matrix" values="0 0 0 0 0 0 0 0 0 0 0 0 0 0 0 0 0 0 127 0" result="hardAlpha"/>
<feOffset dy="41.7776"/>
<feGaussianBlur stdDeviation="16.711"/>
<feColorMatrix type="matrix" values="0 0 0 0 0 0 0 0 0 0 0 0 0 0 0 0 0 0 0.0503198 0"/>
<feBlend mode="normal" in2="effect4_dropShadow_203_37" result="effect5_dropShadow_203_37"/>
<feColorMatrix in="SourceAlpha" type="matrix" values="0 0 0 0 0 0 0 0 0 0 0 0 0 0 0 0 0 0 127 0" result="hardAlpha"/>
<feOffset dy="100"/>
<feGaussianBlur stdDeviation="40"/>
<feColorMatrix type="matrix" values="0 0 0 0 0 0 0 0 0 0 0 0 0 0 0 0 0 0 0.07 0"/>
<feBlend mode="normal" in2="effect5_dropShadow_203_37" result="effect6_dropShadow_203_37"/>
<feBlend mode="normal" in="SourceGraphic" in2="effect6_dropShadow_203_37" result="shape"/>
</filter>
<linearGradient id="paint0_linear_203_37" x1="44.25" y1="-18.312" x2="371.601" y2="219.067" gradientUnits="userSpaceOnUse">
<stop stop-color="white"/>
<stop offset="1" stop-color="#DFDFDF"/>
</linearGradient>
</defs>
</svg>
