<svg viewBox="0 0 14 15" fill="none" xmlns="http://www.w3.org/2000/svg">
<path d="M5.26663 3.32812C5.26663 2.99675 4.998 2.72812 4.66663 2.72812C4.33526 2.72812 4.06663 2.99675 4.06663 3.32813L5.26663 3.32812ZM4.06663 12.6615C4.06663 12.9928 4.33526 13.2615 4.66663 13.2615C4.998 13.2615 5.26663 12.9928 5.26663 12.6615H4.06663ZM4.06663 4.26146C4.06663 4.59283 4.33526 4.86146 4.66663 4.86146C4.998 4.86146 5.26663 4.59283 5.26663 4.26146L4.06663 4.26146ZM5.26663 7.06146C5.26663 6.73009 4.998 6.46146 4.66663 6.46146C4.33526 6.46146 4.06663 6.73009 4.06663 7.06146H5.26663ZM4.06663 8.92812C4.06663 9.2595 4.33526 9.52812 4.66663 9.52812C4.998 9.52812 5.26663 9.2595 5.26663 8.92812H4.06663ZM5.26663 11.7281C5.26663 11.3968 4.998 11.1281 4.66663 11.1281C4.33526 11.1281 4.06663 11.3968 4.06663 11.7281H5.26663ZM4.06663 3.32813L4.06663 4.26146L5.26663 4.26146L5.26663 3.32812L4.06663 3.32813ZM4.06663 7.06146L4.06663 8.92812H5.26663L5.26663 7.06146H4.06663ZM4.06663 11.7281L4.06663 12.6615H5.26663L5.26663 11.7281H4.06663Z" fill="#878D94"/>
<path d="M1.91838 9.1895L2.17802 9.73042L2.17802 9.73042L1.91838 9.1895ZM1.91838 6.80008L2.17802 6.25916H2.17802L1.91838 6.80008ZM12.3658 9.32597L12.6255 8.78505L12.3658 9.32597ZM12.3658 6.66361L12.1062 6.1227L12.3658 6.66361ZM12.0815 6.80008L12.3412 7.34099V7.34099L12.0815 6.80008ZM12.0815 9.1895L11.8219 9.73042H11.8219L12.0815 9.1895ZM1.63408 6.66361L1.37444 7.20453L1.37444 7.20453L1.63408 6.66361ZM1.63408 9.32597L1.37444 8.78505H1.37444L1.63408 9.32597ZM7.59351 6.67492L7.02116 6.49489L7.59351 6.67492ZM6.66619 8.23115L6.30603 8.71103L6.66619 8.23115ZM6.8851 8.92712L7.45745 9.10715L6.8851 8.92712ZM7.81242 9.62308L7.45226 9.1432L7.81242 9.62308ZM8.52083 9.62308L8.88099 9.1432L8.52083 9.62308ZM9.44816 8.92712L8.8758 9.10715L9.44816 8.92712ZM9.66707 8.23115L9.30691 7.75127L9.66707 8.23115ZM8.73974 6.67492L9.3121 6.49489L8.73974 6.67492ZM3.75922 3.92813H10.2407V2.72812H3.75922V3.92813ZM10.2407 12.0615H3.75922V13.2615H10.2407V12.0615ZM12.1062 6.1227L11.8219 6.25916L12.3412 7.34099L12.6255 7.20453L12.1062 6.1227ZM11.8219 9.73042L12.1062 9.86688L12.6255 8.78505L12.3412 8.64859L11.8219 9.73042ZM1.89372 9.86688L2.17802 9.73042L1.65874 8.64859L1.37444 8.78505L1.89372 9.86688ZM2.17802 6.25916L1.89372 6.1227L1.37444 7.20453L1.65874 7.34099L2.17802 6.25916ZM2.17802 9.73042C3.63417 9.03146 3.63417 6.95812 2.17802 6.25916L1.65874 7.34099C2.20727 7.60428 2.20727 8.3853 1.65874 8.64859L2.17802 9.73042ZM12.1062 9.86688C12.1839 9.90417 12.2333 9.9827 12.2333 10.0689H13.4333C13.4333 9.52119 13.1192 9.02205 12.6255 8.78505L12.1062 9.86688ZM12.2333 5.92072C12.2333 6.00688 12.1839 6.08541 12.1062 6.1227L12.6255 7.20453C13.1192 6.96753 13.4333 6.46839 13.4333 5.92072H12.2333ZM11.8219 6.25916C10.3657 6.95812 10.3657 9.03146 11.8219 9.73042L12.3412 8.64859C11.7927 8.3853 11.7927 7.60428 12.3412 7.34099L11.8219 6.25916ZM3.75922 12.0615C2.65874 12.0615 1.76663 11.1693 1.76663 10.0689H0.566626C0.566626 11.8321 1.996 13.2615 3.75922 13.2615V12.0615ZM1.89372 6.1227C1.81604 6.08541 1.76663 6.00688 1.76663 5.92072H0.566626C0.566626 6.46839 0.880704 6.96753 1.37444 7.20453L1.89372 6.1227ZM10.2407 13.2615C12.0039 13.2615 13.4333 11.8321 13.4333 10.0689H12.2333C12.2333 11.1693 11.3412 12.0615 10.2407 12.0615V13.2615ZM1.76663 10.0689C1.76663 9.9827 1.81604 9.90417 1.89372 9.86688L1.37444 8.78505C0.880705 9.02205 0.566626 9.52119 0.566626 10.0689H1.76663ZM10.2407 3.92813C11.3412 3.92813 12.2333 4.82024 12.2333 5.92072H13.4333C13.4333 4.1575 12.0039 2.72812 10.2407 2.72812V3.92813ZM3.75922 2.72812C1.996 2.72812 0.566626 4.1575 0.566626 5.92072H1.76663C1.76663 4.82024 2.65874 3.92813 3.75922 3.92813V2.72812ZM7.02039 7.70505C7.55412 7.70505 8.00981 7.35108 8.16586 6.85495L7.02116 6.49489C7.01869 6.50273 7.01527 6.50567 7.01444 6.50629C7.01399 6.50663 7.01429 6.50629 7.01558 6.50585C7.01704 6.50536 7.01883 6.50505 7.02039 6.50505V7.70505ZM7.02634 7.75127C7.02273 7.74856 7.02063 7.74654 7.01957 7.74542C7.0185 7.74431 7.01807 7.74369 7.018 7.74357C7.01791 7.74344 7.01791 7.74342 7.0179 7.74342C7.01789 7.74339 7.01776 7.74311 7.01758 7.74246C7.01665 7.73917 7.01533 7.7289 7.01963 7.71521C7.02396 7.70145 7.02964 7.69772 7.0269 7.6999C7.02508 7.70136 7.02198 7.70325 7.01836 7.70453C7.01448 7.7059 7.01435 7.70505 7.02039 7.70505V6.50505C5.81683 6.50505 5.40748 8.03666 6.30603 8.71103L7.02634 7.75127ZM7.45745 9.10715C7.61259 8.61393 7.44602 8.06624 7.02634 7.75127L6.30603 8.71103C6.30684 8.71164 6.31027 8.71457 6.31274 8.72243C6.31523 8.73034 6.31529 8.73899 6.31274 8.74709L7.45745 9.10715ZM7.45226 9.1432C7.44548 9.14829 7.44397 9.14788 7.44796 9.14661C7.4518 9.14539 7.45674 9.14466 7.46155 9.14481C7.4705 9.14509 7.47021 9.14773 7.46417 9.1432C7.45817 9.1387 7.45517 9.13341 7.45431 9.13093C7.45403 9.13012 7.45374 9.12907 7.45371 9.127C7.45368 9.12512 7.45379 9.11879 7.45745 9.10715L6.31274 8.74709C6.13957 9.29765 6.36327 9.81734 6.74385 10.103C7.12724 10.3907 7.69871 10.4586 8.17258 10.103L7.45226 9.1432ZM8.88099 9.1432C8.45639 8.82453 7.87687 8.82453 7.45226 9.1432L8.17258 10.103C8.17316 10.1025 8.17267 10.103 8.17119 10.1035C8.16984 10.1039 8.16827 10.1042 8.16663 10.1042C8.16498 10.1042 8.16342 10.1039 8.16206 10.1035C8.16058 10.103 8.16009 10.1025 8.16068 10.103L8.88099 9.1432ZM8.8758 9.10715C8.87946 9.11879 8.87957 9.12512 8.87954 9.127C8.87951 9.12907 8.87923 9.13012 8.87894 9.13093C8.87808 9.13341 8.87509 9.1387 8.86909 9.1432C8.86305 9.14773 8.86275 9.14509 8.8717 9.14481C8.87651 9.14466 8.88145 9.14539 8.88529 9.14661C8.88929 9.14788 8.88777 9.14829 8.88099 9.1432L8.16068 10.103C8.63454 10.4586 9.20602 10.3907 9.5894 10.103C9.96998 9.81734 10.1937 9.29764 10.0205 8.74709L8.8758 9.10715ZM9.30691 7.75127C8.88724 8.06624 8.72066 8.61393 8.8758 9.10715L10.0205 8.74709C10.018 8.73899 10.018 8.73034 10.0205 8.72243C10.023 8.71457 10.0264 8.71164 10.0272 8.71103L9.30691 7.75127ZM9.31286 7.70505C9.3189 7.70505 9.31877 7.7059 9.3149 7.70453C9.31127 7.70325 9.30818 7.70136 9.30635 7.6999C9.30362 7.69772 9.30929 7.70145 9.31362 7.71521C9.31793 7.7289 9.31661 7.73917 9.31568 7.74246C9.31549 7.74311 9.31536 7.74339 9.31535 7.74342C9.31535 7.74342 9.31534 7.74344 9.31526 7.74357C9.31518 7.74369 9.31475 7.74431 9.31368 7.74542C9.31262 7.74654 9.31052 7.74856 9.30691 7.75127L10.0272 8.71103C10.9258 8.03666 10.5164 6.50505 9.31286 6.50505V7.70505ZM8.16739 6.85495C8.32344 7.35108 8.77913 7.70505 9.31286 7.70505V6.50505C9.31443 6.50505 9.31622 6.50536 9.31767 6.50585C9.31897 6.50629 9.31927 6.50663 9.31881 6.50629C9.31799 6.50567 9.31456 6.50273 9.3121 6.49489L8.16739 6.85495ZM9.3121 6.49489C8.95557 5.36142 7.37768 5.36142 7.02116 6.49489L8.16586 6.85495C8.16777 6.8489 8.16951 6.84498 8.17062 6.84277C8.17172 6.84056 8.17241 6.83963 8.17244 6.83959C8.17247 6.83954 8.17213 6.84001 8.17137 6.84076C8.17062 6.84149 8.16973 6.84224 8.16876 6.84293C8.16469 6.84579 8.16359 6.84479 8.16663 6.84479C8.16967 6.84479 8.16856 6.84579 8.1645 6.84293C8.16352 6.84224 8.16263 6.84149 8.16188 6.84076C8.16113 6.84001 8.16078 6.83954 8.16082 6.83959C8.16084 6.83963 8.16153 6.84056 8.16263 6.84277C8.16374 6.84498 8.16549 6.8489 8.16739 6.85495L9.3121 6.49489Z" fill="#878D94"/>
</svg>
