<svg width="25" height="40" viewBox="0 0 25 40" fill="none" xmlns="http://www.w3.org/2000/svg">
<path fill-rule="evenodd" clip-rule="evenodd" d="M14.7197 0.46967C15.0126 0.176777 15.4875 0.176777 15.7804 0.46967L17.0061 1.69537C17.3796 2.06894 17.5471 2.5677 17.5147 3.05027C17.4839 3.5078 17.2732 3.95697 16.8889 4.27719L15.4802 5.45117C15.162 5.71634 14.689 5.67335 14.4239 5.35514C14.1587 5.03693 14.2017 4.56401 14.5199 4.29883L15.1785 3.75H11C9.08038 3.75 8.29842 3.75925 7.68671 3.95801C6.39285 4.37841 5.37844 5.39282 4.95804 6.68668C4.75929 7.29839 4.75003 8.08034 4.75003 10C4.75003 11.9197 4.75929 12.7016 4.95804 13.3133C5.08604 13.7073 4.87045 14.1304 4.47651 14.2584C4.08257 14.3864 3.65946 14.1708 3.53146 13.7768C3.24958 12.9093 3.24975 11.8681 3.25002 10.1618C3.25002 10.1085 3.25003 10.0546 3.25003 10C3.25003 9.94539 3.25002 9.89145 3.25002 9.83816C3.24975 8.13188 3.24958 7.09067 3.53146 6.22315C4.10024 4.47263 5.47267 3.1002 7.22319 2.53142C8.09071 2.24955 9.13192 2.24971 10.8382 2.24998C10.8915 2.24999 10.9454 2.25 11 2.25H15.4394L14.7197 1.53033C14.4268 1.23744 14.4268 0.762563 14.7197 0.46967ZM19.5236 5.74162C19.9175 5.61362 20.3406 5.82921 20.4686 6.22315C20.7505 7.09067 20.7503 8.13189 20.75 9.83817C20.75 9.89146 20.75 9.9454 20.75 10C20.75 10.0546 20.75 10.1085 20.75 10.1618C20.7503 11.8681 20.7505 12.9093 20.4686 13.7768C19.8998 15.5274 18.5274 16.8998 16.7769 17.4686C15.9094 17.7504 14.8681 17.7503 13.1619 17.75C13.1086 17.75 13.0546 17.75 13 17.75H11C10.9475 17.75 10.8956 17.75 10.8443 17.75C10.1455 17.7501 9.55819 17.7502 9.0489 17.7311L9.73017 18.2988C10.0484 18.564 10.0914 19.0369 9.8262 19.3551C9.56103 19.6733 9.0881 19.7163 8.76989 19.4512L7.36112 18.2772C6.86236 17.8616 6.65777 17.2321 6.75507 16.6453C6.81262 16.2982 6.97575 15.9636 7.24401 15.6954L8.4697 14.4697C8.7626 14.1768 9.23747 14.1768 9.53036 14.4697C9.82326 14.7626 9.82326 15.2374 9.53036 15.5303L8.84077 16.2199C9.35444 16.2478 10.0328 16.25 11 16.25H13C14.9197 16.25 15.7016 16.2407 16.3134 16.042C17.6072 15.6216 18.6216 14.6072 19.042 13.3133C19.2408 12.7016 19.25 11.9197 19.25 10C19.25 8.08034 19.2408 7.29839 19.042 6.68668C18.914 6.29274 19.1296 5.86962 19.5236 5.74162Z" fill="#FFCE22"/>
<path d="M3.39746 38.0928L5.37988 30.0469H6.45312L6.52148 31.7422L4.40234 40H3.26758L3.39746 38.0928ZM2.14648 30.0469L3.77344 38.0654V40H2.53613L0.280273 30.0469H2.14648ZM8.5791 38.0312L10.1787 30.0469H12.0518L9.7959 40H8.55859L8.5791 38.0312ZM6.96582 30.0469L8.94824 38.1201L9.06445 40H7.92969L5.81738 31.7354L5.89941 30.0469H6.96582Z" fill="#878D94"/>
<path d="M14.9221 30.0469V40H13.0423V30.0469H14.9221Z" fill="#878D94"/>
<path d="M20.4585 36.3701H17.8951V34.8936H20.4585C20.8778 34.8936 21.2173 34.8252 21.4771 34.6885C21.7414 34.5472 21.9351 34.3558 22.0581 34.1143C22.1812 33.8682 22.2427 33.5879 22.2427 33.2734C22.2427 32.9681 22.1812 32.6833 22.0581 32.4189C21.9351 32.1546 21.7414 31.9404 21.4771 31.7764C21.2173 31.6123 20.8778 31.5303 20.4585 31.5303H18.5103V40H16.6304V30.0469H20.4585C21.2333 30.0469 21.8941 30.1859 22.441 30.4639C22.9924 30.7373 23.4117 31.1178 23.6988 31.6055C23.9904 32.0885 24.1363 32.64 24.1363 33.2598C24.1363 33.9023 23.9904 34.4561 23.6988 34.9209C23.4117 35.3857 22.9924 35.7435 22.441 35.9941C21.8941 36.2448 21.2333 36.3701 20.4585 36.3701Z" fill="#878D94"/>
</svg>
