<svg viewBox="0 0 14 15" fill="none" xmlns="http://www.w3.org/2000/svg">
<g clip-path="url(#clip0_55_657)">
<path d="M2.95229 13.2234L3.30496 12.738L2.95229 13.2234ZM2.30703 12.5781L2.79244 12.2255L2.30703 12.5781ZM11.693 12.5781L11.2076 12.2255L11.693 12.5781ZM11.0477 13.2234L11.4004 13.7088L11.0477 13.2234ZM11.0477 3.83747L11.4004 3.35206L11.0477 3.83747ZM11.693 4.48273L11.2076 4.8354L11.693 4.48273ZM2.95229 3.83747L3.30496 4.32288L2.95229 3.83747ZM2.30703 4.48273L2.79244 4.8354H2.79244L2.30703 4.48273ZM11.2104 10.3163L11.1165 9.72373L11.2104 10.3163ZM8.78591 12.7408L8.1933 12.647L8.78591 12.7408ZM5.25 8.51377C4.91863 8.51377 4.65 8.7824 4.65 9.11377C4.65 9.44514 4.91863 9.71377 5.25 9.71377V8.51377ZM8.75 9.71377C9.08137 9.71377 9.35 9.44514 9.35 9.11377C9.35 8.7824 9.08137 8.51377 8.75 8.51377V9.71377ZM8.15 3.86377C8.15 4.19514 8.41863 4.46377 8.75 4.46377C9.08137 4.46377 9.35 4.19514 9.35 3.86377H8.15ZM9.35 2.11377C9.35 1.7824 9.08137 1.51377 8.75 1.51377C8.41863 1.51377 8.15 1.7824 8.15 2.11377H9.35ZM4.65 3.86377C4.65 4.19514 4.91863 4.46377 5.25 4.46377C5.58137 4.46377 5.85 4.19514 5.85 3.86377H4.65ZM5.85 2.11377C5.85 1.7824 5.58137 1.51377 5.25 1.51377C4.91863 1.51377 4.65 1.7824 4.65 2.11377H5.85ZM12.2331 10.2804L12.8328 10.301L12.2331 10.2804ZM1.76687 6.78044L1.16723 6.75989L1.76687 6.78044ZM12.2331 6.78044L12.8328 6.75989L12.2331 6.78044ZM7 13.1804C5.89296 13.1804 5.11088 13.1796 4.50803 13.1143C3.91641 13.0502 3.56898 12.9298 3.30496 12.738L2.59962 13.7088C3.1023 14.074 3.68505 14.2322 4.37877 14.3073C5.06127 14.3813 5.91969 14.3804 7 14.3804V13.1804ZM1.15 8.53044C1.15 9.61074 1.14918 10.4692 1.22312 11.1517C1.29828 11.8454 1.45641 12.4281 1.82162 12.9308L2.79244 12.2255C2.60062 11.9615 2.48024 11.614 2.41614 11.0224C2.35082 10.4196 2.35 9.63747 2.35 8.53044H1.15ZM3.30496 12.738C3.10829 12.5951 2.93534 12.4221 2.79244 12.2255L1.82162 12.9308C2.03853 13.2294 2.30108 13.4919 2.59962 13.7088L3.30496 12.738ZM11.2076 12.2255C11.0647 12.4221 10.8917 12.5951 10.695 12.738L11.4004 13.7088C11.6989 13.4919 11.9615 13.2294 12.1784 12.9308L11.2076 12.2255ZM10.695 4.32288C10.8917 4.46577 11.0647 4.63873 11.2076 4.8354L12.1784 4.13006C11.9615 3.83151 11.6989 3.56897 11.4004 3.35206L10.695 4.32288ZM2.59962 3.35206C2.30108 3.56897 2.03853 3.83151 1.82162 4.13006L2.79244 4.8354C2.93534 4.63873 3.10829 4.46577 3.30496 4.32288L2.59962 3.35206ZM11.1165 9.72373C9.61178 9.96206 8.43163 11.1422 8.1933 12.647L9.37852 12.8347C9.53553 11.8434 10.313 11.066 11.3043 10.909L11.1165 9.72373ZM5.25 9.71377H8.75V8.51377H5.25V9.71377ZM12.2331 9.68044C11.7244 9.68044 11.3991 9.67898 11.1165 9.72373L11.3043 10.909C11.4704 10.8826 11.6804 10.8804 12.2331 10.8804L12.2331 9.68044ZM11.65 8.53044C11.65 9.21563 11.6499 9.77982 11.6335 10.2599L12.8328 10.301C12.8501 9.79598 12.85 9.20899 12.85 8.53044H11.65ZM11.6335 10.2599C11.5965 11.3399 11.4752 11.857 11.2076 12.2255L12.1784 12.9308C12.6775 12.2439 12.7953 11.3958 12.8328 10.301L11.6335 10.2599ZM9.35 13.7636C9.35 13.2109 9.3522 13.0009 9.37852 12.8347L8.1933 12.647C8.14854 12.9295 8.15 13.2549 8.15 13.7636L9.35 13.7636ZM7 14.3804C7.67855 14.3804 8.26555 14.3805 8.77054 14.3632L8.72945 13.1639C8.24938 13.1804 7.68519 13.1804 7 13.1804V14.3804ZM8.77054 14.3632C9.86539 14.3257 10.7134 14.2079 11.4004 13.7088L10.695 12.738C10.3266 13.0057 9.80949 13.1269 8.72945 13.1639L8.77054 14.3632ZM2.35 8.53044C2.35 7.84524 2.35008 7.28105 2.36652 6.80098L1.16723 6.75989C1.14992 7.26489 1.15 7.85188 1.15 8.53044H2.35ZM2.36652 6.80098C2.40353 5.72095 2.52476 5.20384 2.79244 4.8354L1.82162 4.13006C1.32254 4.81699 1.20474 5.66504 1.16723 6.75989L2.36652 6.80098ZM1.76687 7.38044H12.2331V6.18044H1.76687V7.38044ZM12.85 8.53044C12.85 7.85188 12.8501 7.26489 12.8328 6.75989L11.6335 6.80098C11.6499 7.28105 11.65 7.84524 11.65 8.53044H12.85ZM12.8328 6.75989C12.7953 5.66504 12.6775 4.81699 12.1784 4.13006L11.2076 4.8354C11.4752 5.20384 11.5965 5.72095 11.6335 6.80098L12.8328 6.75989ZM9.35 3.86377V3.29731H8.15V3.86377H9.35ZM9.35 3.29731V2.11377H8.15V3.29731H9.35ZM7 3.88044C7.68519 3.88044 8.24938 3.88051 8.72945 3.89696L8.77054 2.69766C8.26555 2.68036 7.67855 2.68044 7 2.68044V3.88044ZM8.72945 3.89696C9.80949 3.93396 10.3266 4.05519 10.695 4.32288L11.4004 3.35206C10.7134 2.85298 9.86539 2.73517 8.77054 2.69766L8.72945 3.89696ZM5.85 3.86377V3.29731H4.65V3.86377H5.85ZM5.85 3.29731V2.11377H4.65V3.29731H5.85ZM7 2.68044C6.32145 2.68044 5.73445 2.68036 5.22946 2.69766L5.27054 3.89696C5.75062 3.88051 6.31481 3.88044 7 3.88044V2.68044ZM5.22946 2.69766C4.13461 2.73517 3.28655 2.85298 2.59962 3.35206L3.30496 4.32288C3.67341 4.05519 4.19051 3.93396 5.27054 3.89696L5.22946 2.69766Z" fill="#878D94"/>
</g>
<defs>
<clipPath id="clip0_55_657">
<rect width="14" height="14" fill="white" transform="translate(0 0.947266)"/>
</clipPath>
</defs>
</svg>
