<svg xmlns="http://www.w3.org/2000/svg" version="1.1" xmlns:xlink="http://www.w3.org/1999/xlink" xmlns:svgjs="http://svgjs.com/svgjs" x="0" y="0" viewBox="0 0 24 24" style="enable-background:new 0 0 512 512" xml:space="preserve" class=""><g><path xmlns="http://www.w3.org/2000/svg" d="M22,12a1,1,0,0,0-1,1v4.34A2.663,2.663,0,0,1,18.34,20H5.66A2.663,2.663,0,0,1,3,17.34V13a1,1,0,0,0-2,0v4.34A4.665,4.665,0,0,0,5.66,22H18.34A4.665,4.665,0,0,0,23,17.34V13A1,1,0,0,0,22,12Z" fill="#000000" data-original="#000000" class=""></path><path xmlns="http://www.w3.org/2000/svg" d="M11.293,16.707a1,1,0,0,0,1.414,0l6-6a1,1,0,0,0-1.414-1.414L13,13.586V3a1,1,0,0,0-2,0V13.586L6.707,9.293a1,1,0,0,0-1.414,1.414Z" fill="#000000" data-original="#000000" class=""></path></g></svg>