<svg xmlns="http://www.w3.org/2000/svg" version="1.1" xmlns:xlink="http://www.w3.org/1999/xlink" xmlns:svgjs="http://svgjs.com/svgjs" x="0" y="0" viewBox="0 0 512 512" style="enable-background:new 0 0 512 512" xml:space="preserve" class=""><g><g xmlns="http://www.w3.org/2000/svg"><path d="m136 0c-8.291 0-15 6.709-15 15v95.122c32.441-12.105 67.983-19.122 105-19.122 36.288 0 71.981 6.784 105 19.188v-95.188c0-8.291-6.709-15-15-15zm90 60c-8.284 0-15-6.716-15-15 0-8.286 6.716-15 15-15s15 6.714 15 15c0 8.284-6.716 15-15 15z" fill="#ffffff" data-original="#000000" class=""></path><path d="m497 241h-59.037c-4.307-9.434-9.902-18.926-16.963-28.711v-3.867c0-23.013 9.331-45.542 25.605-61.816 4.292-4.292 5.581-10.737 3.252-16.348-2.314-5.611-7.793-9.258-13.857-9.258h-16.172c-27.817 0-54.155 9.668-75.264 27.407-35.874-17.959-76.626-27.407-118.564-27.407-76.221 0-146.62 31.218-187.696 80.317-5.1-5.474-8.304-12.612-8.304-20.317 0-12.686 8.042-24.067 19.995-28.301 7.822-2.754 11.909-11.323 9.141-19.131-2.754-7.822-11.353-11.895-19.131-9.141-23.936 8.453-40.005 31.187-40.005 56.573 0 17.607 7.914 34.083 20.891 45.335-2.668 4.669-5.687 9.166-7.868 14.064 0 .015-.015.015-.015.015-8.628 19.395-13.008 39.785-13.008 60.586 0 46.831 22.046 91.776 62.227 125.365 9.228 49.234 53.368 85.635 103.773 85.635 8.291 0 15-6.709 15-15v-18.662c28.638 4.688 56.763 5.142 88.418-.029 19.907 21.518 47.358 33.691 76.582 33.691 8.291 0 15-6.709 15-15v-51.46c24.683-14.854 45.293-34.651 60.278-55.54h14.722c41.353 0 76-33.395 76-74.747v-59.253c0-8.291-6.709-15-15-15zm-151 30c-8.284 0-15-6.716-15-15 0-8.286 6.716-15 15-15s15 6.714 15 15c0 8.284-6.716 15-15 15z" fill="#ffffff" data-original="#000000" class=""></path></g></g></svg>