<svg width="24" height="24" viewBox="0 0 24 24" fill="none" xmlns="http://www.w3.org/2000/svg">
<path d="M12.0001 18C12.6943 18 13.75 17.6385 14.8325 17.1666C16.2017 16.5696 16.8863 16.2711 17.5655 15.5804C17.9758 15.1631 18.4198 14.4851 18.6383 13.9422C18.683 13.8314 18.7221 13.7204 18.7564 13.6074M12.0001 18C11.3059 18 10.2502 17.6385 9.16768 17.1666C7.79848 16.5696 7.11388 16.2711 6.43474 15.5804C6.02443 15.1631 5.58043 14.4851 5.36187 13.9422C5.31593 13.8281 5.27582 13.7137 5.24081 13.5973M12.0001 18V22M16.0001 22H8.00011M5.11382 6C5.00011 6.675 5.00011 7.55834 5.00011 9V10.3004C5.00011 11.897 5.00011 12.7966 5.24081 13.5973M5.11382 6C5.14692 5.80353 5.18965 5.62471 5.24482 5.45492C5.73941 3.93273 6.93283 2.73931 8.45502 2.24472C9.20818 2 10.1388 2 12.0001 2C13.8614 2 14.792 2 15.5452 2.24472C17.0674 2.73931 18.2608 3.93273 18.7554 5.45492C18.8106 5.62471 18.8533 5.80353 18.8864 6M5.11382 6H4.23088C1.24255 6 -0.0411563 9.79198 2.33264 11.6072L4.78862 13.3498C4.92922 13.4496 5.08098 13.5326 5.24081 13.5973M18.7564 13.6074C19.0001 12.8042 19.0001 11.9037 19.0001 10.3004V9C19.0001 7.55834 19.0001 6.675 18.8864 6M18.7564 13.6074C18.9184 13.536 19.0729 13.4484 19.2173 13.3459L21.6677 11.6072C24.0415 9.79198 22.7578 6 19.7695 6H18.8864M10.035 8.47473C10.4826 8.47473 10.8792 8.17705 11.0175 7.73737C11.3268 6.75421 12.6732 6.75421 12.9825 7.73737C13.1208 8.17705 13.5174 8.47473 13.965 8.47473C14.9657 8.47473 15.3818 9.79756 14.5722 10.4052C14.2101 10.6769 14.0586 11.1586 14.1969 11.5983C14.5062 12.5814 13.4168 13.399 12.6072 12.7914C12.2451 12.5196 11.7549 12.5196 11.3928 12.7914C10.5832 13.399 9.49385 12.5814 9.80309 11.5983C9.94139 11.1586 9.78989 10.6769 9.42782 10.4052C8.6182 9.79756 9.03429 8.47473 10.035 8.47473Z" stroke="#878D94" stroke-width="1.5" stroke-linecap="round"/>
</svg>
