<svg xmlns="http://www.w3.org/2000/svg" version="1.1" xmlns:xlink="http://www.w3.org/1999/xlink" 
     xmlns:svgjs="http://svgjs.com/svgjs" x="0" y="0" viewBox="0 0 32 32"
     style="enable-background:new 0 0 512 512" xml:space="preserve" class="">
     <g>
     <path xmlns="http://www.w3.org/2000/svg" id="Top-Up" d="m26.653 13.25c.227.879.347 1.8.347 2.75 0 6.071-4.929 11-11 11s-11-4.929-11-11 4.929-11 11-11c.95 0 1.871.12 2.75.347.535.138 1.081-.184 1.218-.719.138-.534-.184-1.08-.718-1.218-1.039-.267-2.128-.41-3.25-.41-7.175 0-13 5.825-13 13s5.825 13 13 13 13-5.825 13-13c0-1.122-.143-2.211-.41-3.25-.138-.534-.684-.856-1.218-.718-.535.137-.857.683-.719 1.218zm-11.653-3.544c-.505.101-.983.327-1.387.664 0 0 0 0-.001.001-.719.599-1.137 1.485-1.142 2.421s.404 1.827 1.117 2.434c0 0 3.45 2.936 3.45 2.936.264.225.416.556.414.903-.002.348-.157.677-.424.899l-.002.002c-.236.197-.543.289-.848.255-.009-.001-.017-.002-.025-.003-.007-.001-.013-.002-.02-.003-.288-.043-.549-.197-.727-.429-.529-.689-1.012-1.318-1.012-1.318-.336-.438-.964-.52-1.402-.184s-.52.964-.184 1.402c0 0 .483.629 1.012 1.318.314.409.721.73 1.181.941v1.44l.009.131c.017.149.065.274.13.376.165.281.465.474.81.491l.051.002.043-.006c.191-.03.957-.201.957-1.003v-1.227c.475-.109.923-.328 1.305-.646.001-.001.002-.002.003-.002.72-.6 1.138-1.488 1.143-2.425s-.404-1.829-1.118-2.437l-3.45-2.936c-.263-.225-.415-.554-.413-.9.002-.347.157-.674.423-.896l.001-.001c.236-.197.542-.288.848-.254.021.003.043.006.064.01.008.001.016.003.024.004.27.053.513.203.681.424.565.743 1.093 1.438 1.093 1.438.334.44.962.525 1.401.191s.525-.961.191-1.401c0 0-.528-.695-1.093-1.438-.295-.389-.674-.699-1.103-.911v-1.354c0-.552-.448-1-1-1s-1 .448-1 1v1.091zm8-2.706h-3c-.552 0-1 .448-1 1s.448 1 1 1h3v3c0 .552.448 1 1 1s1-.448 1-1v-3h3c.552 0 1-.448 1-1s-.448-1-1-1h-3v-3c0-.552-.448-1-1-1s-1 .448-1 1z" fill="#ffab2e" data-original="#000000" class=""></path>
     </g>
</svg>