<svg viewBox="0 0 41 52" fill="none" xmlns="http://www.w3.org/2000/svg">
<rect x="0.491272" y="0.900391" width="40" height="50.2025" rx="8" fill="#3C90F4"/>
<path d="M17.4246 11.6665C17.4246 11.3351 17.156 11.0665 16.8246 11.0665C16.4932 11.0665 16.2246 11.3351 16.2246 11.6665L17.4246 11.6665ZM16.2246 26.3332C16.2246 26.6645 16.4932 26.9332 16.8246 26.9332C17.156 26.9332 17.4246 26.6645 17.4246 26.3332H16.2246ZM16.2246 12.6443C16.2246 12.9757 16.4932 13.2443 16.8246 13.2443C17.156 13.2443 17.4246 12.9757 17.4246 12.6443L16.2246 12.6443ZM17.4246 15.5776C17.4246 15.2462 17.156 14.9776 16.8246 14.9776C16.4932 14.9776 16.2246 15.2462 16.2246 15.5776H17.4246ZM16.2246 17.5332C16.2246 17.8645 16.4932 18.1332 16.8246 18.1332C17.156 18.1332 17.4246 17.8645 17.4246 17.5332H16.2246ZM17.4246 20.4665C17.4246 20.1351 17.156 19.8665 16.8246 19.8665C16.4932 19.8665 16.2246 20.1351 16.2246 20.4665H17.4246ZM16.2246 22.4221C16.2246 22.7534 16.4932 23.0221 16.8246 23.0221C17.156 23.0221 17.4246 22.7534 17.4246 22.4221H16.2246ZM17.4246 25.3554C17.4246 25.024 17.156 24.7554 16.8246 24.7554C16.4932 24.7554 16.2246 25.024 16.2246 25.3554H17.4246ZM16.2246 11.6665L16.2246 12.6443L17.4246 12.6443L17.4246 11.6665L16.2246 11.6665ZM16.2246 15.5776L16.2246 17.5332H17.4246L17.4246 15.5776H16.2246ZM16.2246 20.4665L16.2246 22.4221H17.4246L17.4246 20.4665H16.2246ZM16.2246 25.3554L16.2246 26.3332H17.4246L17.4246 25.3554H16.2246Z" fill="white"/>
<path d="M12.5059 20.8772L12.7656 21.4182H12.7656L12.5059 20.8772ZM12.5059 17.1224L12.7656 16.5815H12.7656L12.5059 17.1224ZM28.9233 21.0917L29.183 20.5508L28.9233 21.0917ZM28.9233 16.908L28.6637 16.3671V16.3671L28.9233 16.908ZM28.4766 17.1224L28.7362 17.6633H28.7362L28.4766 17.1224ZM28.4766 20.8772L28.217 21.4182L28.4766 20.8772ZM12.0592 16.908L11.7995 17.4489L11.7995 17.4489L12.0592 16.908ZM12.0592 21.0917L11.7995 20.5508H11.7995L12.0592 21.0917ZM21.424 16.9258L20.8516 16.7457L21.424 16.9258ZM19.9668 19.3713L19.6066 19.8511L19.9668 19.3713ZM20.3108 20.4649L20.8831 20.6449L20.3108 20.4649ZM21.768 21.5586L21.4078 21.0787L21.768 21.5586ZM22.8812 21.5586L23.2414 21.0787L22.8812 21.5586ZM24.3384 20.4649L23.7661 20.6449L24.3384 20.4649ZM24.6824 19.3713L24.3223 18.8914H24.3223L24.6824 19.3713ZM23.2252 16.9258L23.7976 16.7457L23.2252 16.9258ZM15.3987 12.2665H25.5838V11.0665H15.3987V12.2665ZM25.5838 25.7332H15.3987V26.9332H25.5838V25.7332ZM28.6637 16.3671L28.217 16.5815L28.7362 17.6633L29.183 17.4489L28.6637 16.3671ZM28.217 21.4182L28.6637 21.6326L29.183 20.5508L28.7362 20.3363L28.217 21.4182ZM12.3188 21.6326L12.7656 21.4182L12.2463 20.3363L11.7995 20.5508L12.3188 21.6326ZM12.7656 16.5815L12.3188 16.3671L11.7995 17.4489L12.2463 17.6633L12.7656 16.5815ZM12.7656 21.4182C14.7945 20.4443 14.7945 17.5554 12.7656 16.5815L12.2463 17.6633C13.3676 18.2016 13.3676 19.7981 12.2463 20.3363L12.7656 21.4182ZM28.6637 21.6326C28.9046 21.7483 29.0579 21.9918 29.0579 22.2591H30.2579C30.2579 21.5303 29.84 20.8661 29.183 20.5508L28.6637 21.6326ZM29.0579 15.7406C29.0579 16.0078 28.9046 16.2514 28.6637 16.3671L29.183 17.4489C29.84 17.1335 30.2579 16.4693 30.2579 15.7406H29.0579ZM28.217 16.5815C26.188 17.5554 26.188 20.4443 28.217 21.4182L28.7362 20.3363C27.6149 19.7981 27.6149 18.2016 28.7362 17.6633L28.217 16.5815ZM15.3987 25.7332C13.48 25.7332 11.9246 24.1778 11.9246 22.2591H10.7246C10.7246 24.8405 12.8172 26.9332 15.3987 26.9332V25.7332ZM12.3188 16.3671C12.0779 16.2514 11.9246 16.0078 11.9246 15.7406H10.7246C10.7246 16.4693 11.1425 17.1335 11.7995 17.4489L12.3188 16.3671ZM25.5838 26.9332C28.1653 26.9332 30.2579 24.8405 30.2579 22.2591H29.0579C29.0579 24.1778 27.5025 25.7332 25.5838 25.7332V26.9332ZM11.9246 22.2591C11.9246 21.9918 12.0779 21.7483 12.3188 21.6326L11.7995 20.5508C11.1425 20.8661 10.7246 21.5303 10.7246 22.2591H11.9246ZM25.5838 12.2665C27.5025 12.2665 29.0579 13.8219 29.0579 15.7406H30.2579C30.2579 13.1592 28.1653 11.0665 25.5838 11.0665V12.2665ZM15.3987 11.0665C12.8172 11.0665 10.7246 13.1592 10.7246 15.7406H11.9246C11.9246 13.8219 13.48 12.2665 15.3987 12.2665V11.0665ZM20.5234 18.2017C21.2063 18.2017 21.7942 17.7485 21.9963 17.1058L20.8516 16.7457C20.8002 16.9091 20.6609 17.0017 20.5234 17.0017V18.2017ZM20.3269 18.8914C20.1866 18.786 20.1435 18.6218 20.1951 18.4576C20.2463 18.2948 20.3664 18.2017 20.5234 18.2017V17.0017C18.9862 17.0017 18.4382 18.9742 19.6066 19.8511L20.3269 18.8914ZM20.8831 20.6449C21.0843 20.0052 20.8673 19.2969 20.3269 18.8914L19.6066 19.8511C19.73 19.9438 19.7907 20.1186 19.7384 20.2849L20.8831 20.6449ZM21.4078 21.0787C21.2745 21.1788 21.1338 21.168 21.0149 21.0787C20.8932 20.9873 20.8243 20.8318 20.8831 20.6449L19.7384 20.2849C19.5137 20.9993 19.8024 21.6691 20.2946 22.0385C20.7896 22.41 21.5193 22.4954 22.1281 22.0385L21.4078 21.0787ZM23.2414 21.0787C22.6961 20.6694 21.9531 20.6694 21.4078 21.0787L22.1281 22.0385C22.2466 21.9495 22.4025 21.9495 22.521 22.0385L23.2414 21.0787ZM23.7661 20.6449C23.8248 20.8318 23.756 20.9873 23.6343 21.0787C23.5153 21.168 23.3747 21.1788 23.2414 21.0787L22.521 22.0385C23.1298 22.4954 23.8596 22.41 24.3546 22.0385C24.8468 21.6691 25.1355 20.9993 24.9108 20.2849L23.7661 20.6449ZM24.3223 18.8914C23.7819 19.2969 23.5648 20.0052 23.7661 20.6449L24.9108 20.2849C24.8585 20.1186 24.9191 19.9438 25.0426 19.8511L24.3223 18.8914ZM24.1258 18.2017C24.2828 18.2017 24.4028 18.2948 24.4541 18.4576C24.5057 18.6218 24.4626 18.786 24.3223 18.8914L25.0426 19.8511C26.211 18.9742 25.6629 17.0017 24.1258 17.0017V18.2017ZM22.6528 17.1058C22.855 17.7485 23.4429 18.2017 24.1258 18.2017V17.0017C23.9882 17.0017 23.8489 16.9091 23.7976 16.7457L22.6528 17.1058ZM23.7976 16.7457C23.3379 15.2845 21.3112 15.2845 20.8516 16.7457L21.9963 17.1058C22.1037 16.7645 22.5455 16.7645 22.6528 17.1058L23.7976 16.7457Z" fill="white"/>
<path d="M9.13873 32.8257V39.9351H7.92291V32.8257H9.13873ZM11.3702 32.8257V33.8022H5.711V32.8257H11.3702ZM11.0523 37.3521V37.2397C11.0523 36.8589 11.1076 36.5057 11.2183 36.1802C11.329 35.8514 11.4885 35.5666 11.6968 35.3257C11.9084 35.0815 12.1656 34.8927 12.4683 34.7593C12.7743 34.6226 13.1193 34.5542 13.5035 34.5542C13.8908 34.5542 14.2359 34.6226 14.5386 34.7593C14.8446 34.8927 15.1034 35.0815 15.315 35.3257C15.5266 35.5666 15.6877 35.8514 15.7984 36.1802C15.9091 36.5057 15.9644 36.8589 15.9644 37.2397V37.3521C15.9644 37.7329 15.9091 38.0861 15.7984 38.4116C15.6877 38.7371 15.5266 39.022 15.315 39.2661C15.1034 39.507 14.8462 39.6958 14.5435 39.8325C14.2408 39.966 13.8973 40.0327 13.5132 40.0327C13.1259 40.0327 12.7792 39.966 12.4732 39.8325C12.1705 39.6958 11.9133 39.507 11.7017 39.2661C11.4901 39.022 11.329 38.7371 11.2183 38.4116C11.1076 38.0861 11.0523 37.7329 11.0523 37.3521ZM12.229 37.2397V37.3521C12.229 37.5897 12.2535 37.8143 12.3023 38.0259C12.3511 38.2375 12.4276 38.423 12.5318 38.5825C12.6359 38.742 12.7694 38.8674 12.9322 38.9585C13.0949 39.0496 13.2886 39.0952 13.5132 39.0952C13.7313 39.0952 13.9201 39.0496 14.0796 38.9585C14.2424 38.8674 14.3759 38.742 14.48 38.5825C14.5842 38.423 14.6607 38.2375 14.7095 38.0259C14.7616 37.8143 14.7876 37.5897 14.7876 37.3521V37.2397C14.7876 37.0054 14.7616 36.784 14.7095 36.5757C14.6607 36.3641 14.5826 36.1769 14.4751 36.0142C14.371 35.8514 14.2375 35.7244 14.0747 35.6333C13.9152 35.5389 13.7248 35.4917 13.5035 35.4917C13.2821 35.4917 13.09 35.5389 12.9273 35.6333C12.7678 35.7244 12.6359 35.8514 12.5318 36.0142C12.4276 36.1769 12.3511 36.3641 12.3023 36.5757C12.2535 36.784 12.229 37.0054 12.229 37.2397ZM17.9024 35.6675V41.9663H16.7256V34.6519H17.8096L17.9024 35.6675ZM21.3447 37.2446V37.3472C21.3447 37.7313 21.2992 38.0877 21.208 38.4165C21.1201 38.742 20.9883 39.0269 20.8125 39.271C20.64 39.5119 20.4268 39.6991 20.1729 39.8325C19.919 39.966 19.626 40.0327 19.294 40.0327C18.9652 40.0327 18.6771 39.9725 18.4297 39.8521C18.1856 39.7284 17.9789 39.5542 17.8096 39.3296C17.6403 39.105 17.5036 38.8413 17.3994 38.5386C17.2985 38.2326 17.2269 37.8973 17.1846 37.5327V37.1372C17.2269 36.7498 17.2985 36.3983 17.3994 36.0825C17.5036 35.7668 17.6403 35.495 17.8096 35.2671C17.9789 35.0392 18.1856 34.8634 18.4297 34.7397C18.6739 34.616 18.9587 34.5542 19.2842 34.5542C19.6162 34.5542 19.9108 34.6193 20.168 34.7495C20.4252 34.8765 20.6416 35.0588 20.8174 35.2964C20.9932 35.5308 21.125 35.814 21.2129 36.146C21.3008 36.4748 21.3447 36.841 21.3447 37.2446ZM20.168 37.3472V37.2446C20.168 37.0005 20.1452 36.7743 20.0996 36.5659C20.0541 36.3543 19.9824 36.1688 19.8848 36.0093C19.7871 35.8498 19.6618 35.7261 19.5088 35.6382C19.3591 35.547 19.1784 35.5015 18.9668 35.5015C18.7585 35.5015 18.5794 35.5373 18.4297 35.6089C18.28 35.6772 18.1546 35.7733 18.0537 35.897C17.9528 36.0207 17.8747 36.1655 17.8194 36.3315C17.764 36.4943 17.725 36.6717 17.7022 36.8638V37.811C17.7412 38.0454 17.808 38.2603 17.9024 38.4556C17.9968 38.6509 18.1302 38.8071 18.3028 38.9243C18.4785 39.0382 18.7031 39.0952 18.9766 39.0952C19.1882 39.0952 19.3688 39.0496 19.5186 38.9585C19.6683 38.8674 19.7904 38.742 19.8848 38.5825C19.9824 38.4198 20.0541 38.2326 20.0996 38.021C20.1452 37.8094 20.168 37.5848 20.168 37.3472ZM27.5547 38.6899V34.6519H28.7363V39.9351H27.623L27.5547 38.6899ZM27.7207 37.5913L28.1162 37.5815C28.1162 37.9364 28.0771 38.2635 27.999 38.563C27.9209 38.8592 27.8004 39.118 27.6377 39.3394C27.4749 39.5575 27.2666 39.7284 27.0127 39.8521C26.7588 39.9725 26.4544 40.0327 26.0996 40.0327C25.8424 40.0327 25.6064 39.9953 25.3916 39.9204C25.1767 39.8455 24.9912 39.73 24.8349 39.5737C24.6819 39.4175 24.5631 39.214 24.4785 38.9634C24.3939 38.7127 24.3515 38.4132 24.3515 38.0649V34.6519H25.5283V38.0747C25.5283 38.2668 25.5511 38.4279 25.5967 38.5581C25.6422 38.6851 25.7041 38.7876 25.7822 38.8657C25.8603 38.9438 25.9515 38.9992 26.0556 39.0317C26.1598 39.0643 26.2705 39.0806 26.3877 39.0806C26.723 39.0806 26.9866 39.0155 27.1787 38.8853C27.374 38.7518 27.5124 38.5728 27.5937 38.3481C27.6784 38.1235 27.7207 37.8713 27.7207 37.5913ZM30.894 35.6675V41.9663H29.7172V34.6519H30.8012L30.894 35.6675ZM34.3364 37.2446V37.3472C34.3364 37.7313 34.2908 38.0877 34.1997 38.4165C34.1118 38.742 33.9799 39.0269 33.8042 39.271C33.6316 39.5119 33.4184 39.6991 33.1645 39.8325C32.9106 39.966 32.6176 40.0327 32.2856 40.0327C31.9568 40.0327 31.6687 39.9725 31.4214 39.8521C31.1772 39.7284 30.9705 39.5542 30.8012 39.3296C30.632 39.105 30.4952 38.8413 30.3911 38.5386C30.2902 38.2326 30.2186 37.8973 30.1762 37.5327V37.1372C30.2186 36.7498 30.2902 36.3983 30.3911 36.0825C30.4952 35.7668 30.632 35.495 30.8012 35.2671C30.9705 35.0392 31.1772 34.8634 31.4214 34.7397C31.6655 34.616 31.9503 34.5542 32.2758 34.5542C32.6079 34.5542 32.9025 34.6193 33.1596 34.7495C33.4168 34.8765 33.6333 35.0588 33.809 35.2964C33.9848 35.5308 34.1167 35.814 34.2046 36.146C34.2924 36.4748 34.3364 36.841 34.3364 37.2446ZM33.1596 37.3472V37.2446C33.1596 37.0005 33.1368 36.7743 33.0913 36.5659C33.0457 36.3543 32.9741 36.1688 32.8764 36.0093C32.7788 35.8498 32.6534 35.7261 32.5005 35.6382C32.3507 35.547 32.17 35.5015 31.9585 35.5015C31.7501 35.5015 31.5711 35.5373 31.4214 35.6089C31.2716 35.6772 31.1463 35.7733 31.0454 35.897C30.9445 36.0207 30.8663 36.1655 30.811 36.3315C30.7557 36.4943 30.7166 36.6717 30.6938 36.8638V37.811C30.7329 38.0454 30.7996 38.2603 30.894 38.4556C30.9884 38.6509 31.1219 38.8071 31.2944 38.9243C31.4702 39.0382 31.6948 39.0952 31.9682 39.0952C32.1798 39.0952 32.3605 39.0496 32.5102 38.9585C32.66 38.8674 32.782 38.742 32.8764 38.5825C32.9741 38.4198 33.0457 38.2326 33.0913 38.021C33.1368 37.8094 33.1596 37.5848 33.1596 37.3472Z" fill="white"/>
</svg>
